<svg width="1080" height="220" viewBox="0 0 1080 220" fill="none" xmlns="http://www.w3.org/2000/svg">
  <title>Advocate signature horizontal logo</title>
  <desc>Advocate logo with signature emblem beside premium wordmark and institutional tagline.</desc>

  <g transform="translate(20 14) scale(0.84)">
    <path fill="#1E3A5F" opacity="1" stroke="none" d="
M150.242859,213.327026 
	C144.796188,213.206680 140.303024,211.338409 136.099945,208.984299 
	C128.675644,204.826019 127.011993,196.041321 132.013153,188.750488 
	C132.934799,187.406906 134.012268,186.170197 135.321487,184.495789 
	C131.021210,182.319595 127.024429,180.353302 123.078735,178.289352 
	C112.667595,172.843384 102.942001,166.458359 95.638947,157.037811 
	C89.877136,149.605362 86.385002,141.425934 90.023811,131.968216 
	C92.277893,126.109581 95.952499,120.655525 99.777420,116.004616 
	C105.678856,108.828766 114.638893,109.805298 122.983643,111.860672 
	C126.322739,112.683105 129.418808,114.484985 133.083572,114.168114 
	C121.628510,110.387627 110.473358,105.955566 99.914726,100.099411 
	C91.184769,95.257507 88.168800,90.849113 89.809387,84.872589 
	C91.230003,79.697388 97.116066,76.608147 105.990921,76.687035 
	C133.253296,76.929367 157.307678,86.744629 179.566238,101.696625 
	C187.319473,106.904793 194.700623,112.611221 200.842972,119.748085 
	C203.067429,122.332718 206.274551,122.841217 209.307373,123.646919 
	C226.663910,128.257858 244.145813,132.429977 261.028748,138.675034 
	C267.155792,140.941467 272.897369,143.930893 278.259888,147.647919 
	C281.036499,149.572525 284.068481,151.469345 282.297699,155.643997 
	C280.539459,159.789124 276.857910,159.866028 273.379608,159.054489 
	C264.463989,156.974365 255.692184,154.349182 247.285110,150.647217 
	C237.989975,146.554214 228.703842,142.440735 219.405304,138.355469 
	C218.062958,137.765717 216.767197,136.949356 214.685181,137.190918 
	C217.530502,143.453186 221.082306,149.262665 222.442535,155.953629 
	C222.976730,158.581314 223.416687,161.171951 223.350464,163.854721 
	C223.228317,168.803665 223.199646,173.371155 226.816833,177.809952 
	C230.518433,182.352325 228.614365,188.999680 223.721237,192.892471 
	C217.526840,197.820496 210.477600,200.615555 202.491760,200.276123 
	C198.600586,200.110748 195.619904,201.340927 192.462219,203.611954 
	C183.789810,209.849350 174.223969,213.844376 163.203918,213.355606 
	C159.047516,213.171249 154.875961,213.328247 150.242859,213.327026 
M103.729553,149.748322 
	C106.811836,153.500580 110.377357,156.732178 114.302849,159.578369 
	C129.879105,170.871948 147.255234,178.184784 165.853271,182.716110 
	C172.167175,184.254456 178.568161,185.419281 186.154953,184.330566 
	C175.737320,179.143402 167.494171,172.718643 159.837158,165.515259 
	C157.791855,163.591125 155.303665,162.922089 152.738556,162.143600 
	C133.043060,156.166260 113.772049,149.378296 99.689362,133.117859 
	C99.553352,132.960815 99.077255,133.098328 98.428383,133.098328 
	C95.784454,139.724625 99.889061,144.354675 103.729553,149.748322 
M171.509689,113.681358 
	C173.156464,113.784065 174.746033,115.190346 177.181946,113.884323 
	C154.214233,97.215538 129.942902,86.245094 101.413589,87.064308 
	C104.852760,90.941284 109.499931,92.687309 113.943947,94.640511 
	C132.288452,102.703163 151.614639,107.857971 171.509689,113.681358 
M166.152618,206.803772 
	C173.190475,205.958710 179.709427,203.757782 186.636734,199.627319 
	C173.233521,194.348175 159.978790,193.309555 147.479965,189.407410 
	C146.426651,189.078568 145.126190,189.229828 144.009430,189.473602 
	C140.526352,190.233948 137.034683,191.163727 136.363525,195.471359 
	C135.696136,199.754929 138.477142,201.858200 141.787827,203.458878 
	C149.231384,207.057739 157.187958,207.286453 166.152618,206.803772 
M183.869019,136.678894 
	C177.237381,133.603943 170.635468,130.444580 162.775436,128.689972 
	C164.365585,131.909988 166.253693,133.746689 168.118942,135.636017 
	C176.403030,144.027130 187.300507,148.721344 196.485779,155.817368 
	C199.169159,157.890411 201.550278,157.595444 203.534073,155.499924 
	C205.585785,153.332642 203.394485,151.426941 202.088699,149.924713 
	C197.219940,144.323471 191.027573,140.444473 183.869019,136.678894 
M131.843246,128.724777 
	C126.381195,119.799355 115.937988,121.915199 109.518181,126.592499 
	C113.582390,133.262604 129.518112,143.728973 136.721588,144.319946 
	C136.803650,138.819550 135.014954,133.932007 131.843246,128.724777 
M156.123123,144.157806 
	C157.805130,144.509201 159.523834,145.141861 161.287979,143.606827 
	C157.757721,139.525848 153.692795,135.820496 152.264374,130.970230 
	C150.425186,124.725136 146.240967,124.029007 140.026794,124.020096 
	C146.111603,131.657196 144.544601,140.881073 146.411453,150.216202 
	C149.940140,147.133850 151.340927,143.460770 156.123123,144.157806 
M196.415146,176.928574 
	C198.259537,177.569016 200.063782,178.441254 202.146500,178.029327 
	C199.338394,169.172638 192.934326,166.324402 179.809753,168.260574 
	C184.634674,172.427292 190.159958,174.571808 196.415146,176.928574 
M216.609894,184.332672 
	C213.755142,187.497421 210.332535,189.930634 205.756378,192.200378 
	C217.694778,190.240997 221.807205,187.035461 219.260727,181.890350 
	C218.492538,182.581741 217.778992,183.223953 216.609894,184.332672 
z"/>
  </g>

  <g>
    <text
      x="298"
      y="103"
      font-family="Iowan Old Style, Palatino Linotype, Georgia, serif"
      font-size="82"
      font-weight="700"
      fill="#1E3A5F"
      letter-spacing="-1.5"
    >
      Advocate
    </text>
    <path d="M300 128H458" stroke="#C4A747" stroke-width="4" stroke-linecap="square"/>
    <text
      x="300"
      y="168"
      font-family="Inter, Arial, Helvetica, sans-serif"
      font-size="19"
      font-weight="700"
      fill="#5F6967"
      letter-spacing="5.5"
    >
      INSTITUTIONAL CLAIM STRATEGY PLATFORM
    </text>
  </g>
</svg>
